<svg width="32" height="32" viewBox="0 0 32 32" fill="#000" xmlns="http://www.w3.org/2000/svg">
    <g clip-path="url(#clip0_311_15098)">
        <path d="M21.6684 2.85718L21.2647 4.69233C20.891 6.39084 20.038 7.94694 18.8067 9.17659C17.5755 10.4062 16.0174 11.258 14.3167 11.6312L12.4797 12.0341L14.3165 12.4374C16.0172 12.8106 17.5753 13.6624 18.8066 14.8921C20.0379 16.1219 20.8908 17.6781 21.2645 19.3767L21.6682 21.2111L22.0717 19.3767C22.4453 17.6781 23.2983 16.1218 24.5296 14.8921C25.761 13.6623 27.3192 12.8105 29.0199 12.4374L30.8566 12.0341L29.0199 11.6312C27.3193 11.258 25.7612 10.4062 24.5299 9.17659C23.2986 7.94694 22.4457 6.39084 22.0719 4.69233L21.6684 2.85718Z" style="stroke: none"/>
        <path d="M10.2049 17.2114L9.93983 18.4164C9.69422 19.5321 9.13393 20.5542 8.32517 21.362C7.51642 22.1697 6.49301 22.7293 5.37594 22.9746L4.16821 23.2399L5.37497 23.5046C6.49203 23.7499 7.51542 24.3095 8.32417 25.1173C9.13292 25.925 9.69322 26.9471 9.93886 28.0628L10.204 29.268L10.47 28.0647C10.7156 26.9491 11.2759 25.9269 12.0847 25.1192C12.8934 24.3115 13.9168 23.7519 15.0339 23.5066L16.2424 23.2399L15.0358 22.9751C13.9187 22.7298 12.8953 22.1703 12.0865 21.3625C11.2778 20.5548 10.7175 19.5326 10.472 18.4169L10.2049 17.2114Z" style="stroke: none"/>
        <path d="M5.03572 6.38281L4.86579 7.15867C4.7076 7.8788 4.34613 8.53859 3.82418 9.05994C3.30223 9.58128 2.64164 9.94234 1.92062 10.1004L1.14258 10.2713L1.92087 10.441C2.64163 10.5993 3.30194 10.9604 3.82366 11.4817C4.34537 12.003 4.70668 12.6626 4.86482 13.3825L5.03475 14.1596L5.20468 13.3825C5.36315 12.6625 5.72485 12.0029 6.24697 11.4817C6.76909 10.9606 7.42977 10.5998 8.15081 10.442L8.9291 10.2723L8.15081 10.1014C7.43 9.94317 6.76964 9.58206 6.24788 9.06078C5.72611 8.5395 5.36478 7.87985 5.20662 7.15989L5.03572 6.38281Z" style="stroke: none"/>
        <path d="M15.8786 16.9302L15.8301 17.1537C15.7846 17.3607 15.6807 17.5503 15.5307 17.7002C15.3807 17.8501 15.1908 17.9539 14.9836 17.9994L14.7598 18.0479L14.9836 18.0964C15.191 18.142 15.381 18.2459 15.531 18.3961C15.681 18.5462 15.7848 18.7361 15.8301 18.9433L15.8786 19.1668L15.9272 18.9433C15.9727 18.7363 16.0766 18.5466 16.2266 18.3968C16.3766 18.2469 16.5665 18.1431 16.7737 18.0976L16.9975 18.0491L16.7737 18.0006C16.5664 17.9551 16.3766 17.8512 16.2266 17.7013C16.0765 17.5514 15.9727 17.3617 15.9272 17.1547L15.8786 16.9302Z" style="stroke: none"/>
        <path d="M12.222 4.59033L12.1453 4.93971C12.0741 5.26324 11.9116 5.55964 11.677 5.79386C11.4425 6.02807 11.1457 6.19029 10.8217 6.26134L10.4719 6.3382L10.8217 6.41385C11.1457 6.48497 11.4425 6.64725 11.677 6.8815C11.9116 7.11574 12.0741 7.41217 12.1453 7.73572L12.222 8.08679L12.2989 7.73741C12.3698 7.41358 12.5322 7.11682 12.7667 6.88225C13.0012 6.64769 13.2981 6.48514 13.6222 6.41385L13.972 6.33723L13.6222 6.26037C13.2983 6.18925 13.0016 6.027 12.7671 5.7928C12.5326 5.55859 12.3701 5.26223 12.2989 4.93874L12.222 4.59033Z" style="stroke: none"/>
        <path d="M3.52269 17.1819L3.47414 17.4054C3.42866 17.6124 3.32477 17.8021 3.17476 17.952C3.02474 18.1018 2.83488 18.2056 2.62763 18.2511L2.40381 18.2996L2.62763 18.3481C2.8348 18.3939 3.0245 18.498 3.1743 18.6481C3.32409 18.7982 3.42772 18.9879 3.47292 19.195L3.52147 19.4185L3.57003 19.195C3.61576 18.9876 3.72013 18.7977 3.87074 18.6478C4.02135 18.4979 4.21188 18.3943 4.41969 18.3493L4.64351 18.3008L4.41969 18.2523C4.21244 18.2069 4.02258 18.103 3.87256 17.9532C3.72255 17.8033 3.61865 17.6136 3.57318 17.4066L3.52269 17.1819Z" style="stroke: none"/>
        <path d="M20.3064 24.1997L20.2578 24.4233C20.2123 24.6302 20.1083 24.8199 19.9582 24.9697C19.8082 25.1196 19.6183 25.2234 19.4111 25.2689L19.1873 25.3174L19.4111 25.3659C19.6183 25.4114 19.8082 25.5153 19.9582 25.6651C20.1083 25.815 20.2123 26.0046 20.2578 26.2116L20.3064 26.4352L20.3549 26.2116C20.4005 26.0046 20.5045 25.815 20.6545 25.6651C20.8046 25.5153 20.9944 25.4114 21.2017 25.3659L21.4255 25.3174L21.2017 25.2689C20.9944 25.2234 20.8046 25.1196 20.6545 24.9697C20.5045 24.8199 20.4005 24.6302 20.3549 24.4233L20.3064 24.1997Z" style="stroke: none"/>
        <path d="M28.2182 4.59033L28.1697 4.81388C28.1241 5.02087 28.0202 5.2105 27.8701 5.36036C27.7201 5.51022 27.5302 5.61405 27.3229 5.65956L27.0991 5.70806L27.3229 5.75655C27.5302 5.80201 27.7201 5.90581 27.8702 6.05568C28.0202 6.20555 28.1242 6.39522 28.1697 6.60223L28.2182 6.82578L28.2668 6.60223C28.3123 6.39522 28.4163 6.20555 28.5663 6.05568C28.7164 5.90581 28.9063 5.80201 29.1135 5.75655L29.3374 5.70806L29.1135 5.65956C28.9064 5.61391 28.7167 5.50999 28.5667 5.36009C28.4168 5.2102 28.313 5.02058 28.2675 4.81363L28.2182 4.59033Z" style="stroke: none"/>
        <path d="M27.8948 17.4185L27.8179 17.7681C27.7467 18.0916 27.5842 18.3879 27.3497 18.6221C27.1152 18.8563 26.8185 19.0186 26.4946 19.0897L26.1448 19.1666L26.4946 19.2432C26.8185 19.3143 27.1153 19.4766 27.3498 19.7108C27.5843 19.9451 27.7467 20.2415 27.8179 20.5651L27.8948 20.9144L27.9715 20.5651C28.0428 20.2415 28.2052 19.9451 28.4398 19.7108C28.6743 19.4766 28.9711 19.3143 29.2951 19.2432L29.6449 19.1666L29.2951 19.0897C28.9711 19.0186 28.6744 18.8564 28.4398 18.6222C28.2053 18.388 28.0428 18.0916 27.9715 17.7681L27.8948 17.4185Z" style="stroke: none"/>
    </g>
    <defs>
        <clipPath id="clip0_311_15098">
            <rect width="29.7143" height="26.4127" fill="white" transform="translate(1.14282 2.85718)"/>
        </clipPath>
    </defs>
</svg>
