<svg width="24" height="25" viewBox="0 0 24 25" stroke="#24252B"  fill="#24252B" xmlns="http://www.w3.org/2000/svg">
    <path d="M21 10.5001H22C22 10.1965 21.862 9.90927 21.625 9.71949L21 10.5001ZM3 10.5001L2.39685 9.70248C2.1469 9.89149 2 10.1867 2 10.5001H3ZM11.6364 3.96946L12.2396 4.76709V4.76709L11.6364 3.96946ZM12.8646 3.98647L13.4896 3.20585V3.20585L12.8646 3.98647ZM20 10.5001V20.5001H22V10.5001H20ZM20 20.5001H4V22.5001H20V20.5001ZM4 20.5001V10.5001H2V20.5001H4ZM3.60315 11.2977L12.2396 4.76709L11.0333 3.17183L2.39685 9.70248L3.60315 11.2977ZM12.2396 4.76709L20.375 11.2807L21.625 9.71949L13.4896 3.20585L12.2396 4.76709ZM12.2396 4.76709V4.76709L13.4896 3.20585C12.7751 2.63377 11.7634 2.61976 11.0333 3.17183L12.2396 4.76709ZM4 20.5001H4H2C2 21.6047 2.89543 22.5001 4 22.5001V20.5001ZM20 20.5001V22.5001C21.1046 22.5001 22 21.6047 22 20.5001H20Z" style="stroke: none"/>
    <path d="M3 10.5L12.2571 16.5L21 10.5" stroke-width="2" stroke-linecap="round" stroke-linejoin="round" style="fill: none" />
</svg>
