<svg width="24" height="25" viewBox="0 0 24 25" stroke="#000" fill="#000" xmlns="http://www.w3.org/2000/svg">
    <path d="M5 21.5L19 21.5C19.5523 21.5 20 21.0523 20 20.5L20 10.5C20 9.94772 19.5523 9.5 19 9.5L5 9.5C4.44772 9.5 4 9.94772 4 10.5L4 20.5C4 21.0523 4.44772 21.5 5 21.5Z"  stroke-width="2" stroke-linecap="round" stroke-linejoin="round" style="fill: none" />
    <path d="M14.7692 9.5V8.5V9.5ZM9.23077 9.5L9.23077 10.5H9.23077L9.23077 9.5ZM9 9.26923H8H9ZM9 6.5H10H9ZM15 6.5H14V6.5L15 6.5ZM15 9.26923H16H15ZM12 3.5V4.5V3.5ZM14.7692 8.5L9.23077 8.5L9.23077 10.5L14.7692 10.5V8.5ZM10 9.26923L10 6.5H8L8 9.26923H10ZM14 6.5L14 9.26923H16L16 6.5L14 6.5ZM12 4.5C13.1046 4.5 14 5.39543 14 6.5H16C16 4.29086 14.2091 2.5 12 2.5V4.5ZM10 6.5C10 5.39543 10.8954 4.5 12 4.5V2.5C9.79086 2.5 8 4.29086 8 6.5H10ZM9.23077 8.5C9.65561 8.5 10 8.8444 10 9.26923H8C8 9.94896 8.55103 10.5 9.23077 10.5L9.23077 8.5ZM14.7692 10.5C15.449 10.5 16 9.94897 16 9.26923H14C14 8.84439 14.3444 8.5 14.7692 8.5V10.5Z"  style="stroke: none" />
</svg>
