<svg width="24" height="25" viewBox="0 0 24 25" xmlns="http://www.w3.org/2000/svg">
    <rect y="0.5" width="24" height="24" rx="6" fill="#FEE500" style="stroke: none;" />
    <path d="M11.9761 5.30009C7.67222 5.31264 4.18742 8.07916 4.19999 11.4758C4.19999 13.6599 5.6547 15.5754 7.8305 16.6599L7.10439 19.4063C7.09116 19.4457 7.08934 19.4881 7.09912 19.5285C7.1089 19.5689 7.12987 19.6057 7.15966 19.6348C7.18046 19.6555 7.20516 19.6719 7.23232 19.6831C7.25948 19.6943 7.28857 19.7001 7.31795 19.7C7.36809 19.7003 7.41683 19.6834 7.45615 19.6523L10.6093 17.5109C11.0738 17.5759 11.5423 17.6078 12.0113 17.6063C16.3151 17.5938 19.7999 14.8298 19.7999 11.4306C19.7999 8.03147 16.28 5.28754 11.9761 5.30009Z" fill="#18181B" style="stroke: none;" />
</svg>
